<svg enable-background="new 0 0 100 100" viewBox="0 0 100 125" xmlns="http://www.w3.org/2000/svg"><g fill="#fff"><path d="m85.6 46.6c-.2-.8-1.1-1.3-1.9-1-.8.2-1.3 1.1-1 1.9.1.5 3.2 11.7-6.6 23.1-.5.6-.5 1.6.1 2.1.3.2.6.4 1 .4s.8-.2 1.1-.5c11-12.8 7.4-25.5 7.3-26z"/><path d="m93.6 44.9c-.2-.8-1.1-1.2-1.9-1s-1.3 1.1-1 1.9c0 .2 4.6 16.2-9.2 32-.5.6-.5 1.6.1 2.1.3.2.6.4 1 .4s.8-.2 1.1-.5c14.9-17.1 10.1-34.2 9.9-34.9z"/><path d="m27.7 23.8c.7-.5.8-1.4.3-2.1s-1.4-.8-2.1-.3c-.5.3-11.6 8.5-11.2 25.9 0 .8.7 1.5 1.5 1.5s1.5-.7 1.5-1.5c-.3-15.8 9.6-23.2 10-23.5z"/><path d="m22.5 17.3c.7-.5.8-1.4.3-2.1s-1.4-.8-2.1-.3c-.6.4-15.5 11.4-15 34.9 0 .8.7 1.5 1.5 1.5s1.5-.7 1.5-1.5c-.5-21.9 13.6-32.4 13.8-32.5z"/><path d="m78.3 38.5c.4-1.7.1-3.4-.9-4.9-.9-1.5-2.4-2.5-4.1-2.9-1.4-.3-2.9-.2-4.2.5l.9-4.1c.8-3.5-1.4-7-4.9-7.8-1.5-.3-2.9-.1-4.2.5l.1-.4c.4-1.7.1-3.4-.9-4.9-.9-1.5-2.4-2.5-4.1-2.9s-3.4-.1-4.9.9c-1.5.9-2.5 2.4-2.9 4.1l-.4 2c-.9-1.1-2.1-1.9-3.6-2.2-3.5-.8-7 1.4-7.8 5l-2.2 9.9c-3.4-.7-6.8 1.6-7.6 5l-4.2 18.9c-3 13.7 5.6 27.3 19.3 30.4h.1c6.6 1.5 13.5.3 19.2-3.4s9.7-9.3 11.2-16zm-8.6 27.1c-2.7 12.4-15 20.2-27.4 17.5h-.1c-12.3-2.8-20.1-15-17.4-27.4l4.2-18.9c.5-2.2 2.6-3.5 4.8-3 .3.1.5.1.7.2.7.3 1.3.8 1.7 1.5.6.9.8 2 .5 3l-2.6 12.5v.1.1.1.2.1.1.1s0 .1.1.1c0 0 0 .1.1.1s.1.1.1.1.1.1.1.1 0 0 .1.1c4.8 3.4 7.1 9.4 5.9 15-.1.7.3 1.4 1 1.5s1.4-.3 1.5-1c1.4-6.3-1.1-13.1-6.2-17.1l2.6-11.8c.4-1.7.1-3.4-.9-4.9-.5-.8-1.2-1.5-1.9-2l2.3-10.3c.5-2.2 2.6-3.5 4.8-3 2.1.5 3.5 2.6 3 4.8l-4.2 18.9c-.2.7.3 1.4 1 1.5s1.4-.3 1.5-1l5.8-25.9c.2-1 .9-1.9 1.8-2.5s2-.8 3-.5c1 .2 1.9.9 2.5 1.8s.8 2 .5 3l-6.3 27.9c-.2.7.3 1.4 1 1.5s1.4-.3 1.5-1l5.1-22.5c.5-2.2 2.6-3.5 4.8-3s3.5 2.6 3 4.8l-2 9.1-4.2 18.9c-.2.7.3 1.3 1 1.5.7.1 1.4-.3 1.5-1l4-18.7c.2-1 .9-1.9 1.8-2.5s2-.8 3-.5c1 .2 1.9.9 2.5 1.8s.8 2 .5 3z"/></g></svg>