<svg xmlns="http://www.w3.org/2000/svg" xmlns:xlink="http://www.w3.org/1999/xlink" version="1.1" x="0px" y="0px" viewBox="0 0 100 125" enable-background="new 0 0 100 100" xml:space="preserve"><g><path fill="#ffffff" d="M85.6,46.6c-0.2-0.8-1.1-1.3-1.9-1c-0.8,0.2-1.3,1.1-1,1.9c0.1,0.5,3.2,11.7-6.6,23.1   c-0.5,0.6-0.5,1.6,0.1,2.1c0.3,0.2,0.6,0.4,1,0.4c0.4,0,0.8-0.2,1.1-0.5C89.3,59.8,85.7,47.1,85.6,46.6z"/><path fill="#ffffff" d="M93.6,44.9c-0.2-0.8-1.1-1.2-1.9-1c-0.8,0.2-1.3,1.1-1,1.9c0,0.2,4.6,16.2-9.2,32c-0.5,0.6-0.5,1.6,0.1,2.1   c0.3,0.2,0.6,0.4,1,0.4c0.4,0,0.8-0.2,1.1-0.5C98.6,62.7,93.8,45.6,93.6,44.9z"/><path fill="#ffffff" d="M27.7,23.8c0.7-0.5,0.8-1.4,0.3-2.1c-0.5-0.7-1.4-0.8-2.1-0.3c-0.5,0.3-11.6,8.5-11.2,25.9   c0,0.8,0.7,1.5,1.5,1.5c0,0,0,0,0,0c0.8,0,1.5-0.7,1.5-1.5C17.4,31.5,27.3,24.1,27.7,23.8z"/><path fill="#ffffff" d="M22.5,17.3c0.7-0.5,0.8-1.4,0.3-2.1c-0.5-0.7-1.4-0.8-2.1-0.3C20.1,15.3,5.2,26.3,5.7,49.8   c0,0.8,0.7,1.5,1.5,1.5c0,0,0,0,0,0c0.8,0,1.5-0.7,1.5-1.5C8.2,27.9,22.3,17.4,22.5,17.3z"/></g><path fill="#ffffff" d="M78.3,38.5c0.4-1.7,0.1-3.4-0.9-4.9c-0.9-1.5-2.4-2.5-4.1-2.9l0,0c-1.4-0.3-2.9-0.2-4.2,0.5l0.9-4.1  c0.8-3.5-1.4-7-4.9-7.8l0,0c-1.5-0.3-2.9-0.1-4.2,0.5l0.1-0.4c0.4-1.7,0.1-3.4-0.9-4.9c-0.9-1.5-2.4-2.5-4.1-2.9l0,0  c-1.7-0.4-3.4-0.1-4.9,0.9c-1.5,0.9-2.5,2.4-2.9,4.1l-0.4,2c-0.9-1.1-2.1-1.9-3.6-2.2l0,0c-3.5-0.8-7,1.4-7.8,5l-2.2,9.9  c-3.4-0.7-6.8,1.6-7.6,5l-4.2,18.9l0,0c-3,13.7,5.6,27.3,19.3,30.4l0.1,0c6.6,1.5,13.5,0.3,19.2-3.4c5.7-3.7,9.7-9.3,11.2-16  L78.3,38.5z M69.7,65.6C67,78,54.7,85.8,42.3,83.1l-0.1,0c-12.3-2.8-20.1-15-17.4-27.4l4.2-18.9c0.5-2.2,2.6-3.5,4.8-3l0,0  c0.3,0.1,0.5,0.1,0.7,0.2c0,0,0,0,0,0c0.7,0.3,1.3,0.8,1.7,1.5c0.6,0.9,0.8,2,0.5,3L34.1,51c0,0,0,0,0,0.1l0,0c0,0,0,0,0,0.1l0,0  c0,0,0,0,0,0c0,0,0,0.1,0,0.1c0,0.1,0,0.2,0,0.2c0,0,0,0,0,0c0,0,0,0.1,0,0.1c0,0,0,0,0,0c0,0,0,0.1,0,0.1c0,0,0,0.1,0,0.1  c0,0,0,0.1,0.1,0.1c0,0,0,0.1,0.1,0.1c0,0,0,0,0,0c0,0,0.1,0.1,0.1,0.1c0,0,0.1,0.1,0.1,0.1c0,0,0,0,0,0c0,0,0,0,0.1,0.1  c0,0,0,0,0,0c4.8,3.4,7.1,9.4,5.9,15c-0.1,0.7,0.3,1.4,1,1.5c0,0,0,0,0,0c0.7,0.1,1.4-0.3,1.5-1c1.4-6.3-1.1-13.1-6.2-17.1l2.6-11.8  c0.4-1.7,0.1-3.4-0.9-4.9c-0.5-0.8-1.2-1.5-1.9-2l2.3-10.3c0.5-2.2,2.6-3.5,4.8-3l0,0c2.1,0.5,3.5,2.6,3,4.8l-4.2,18.9  c-0.2,0.7,0.3,1.4,1,1.5s1.4-0.3,1.5-1l5.8-25.9c0.2-1,0.9-1.9,1.8-2.5c0.9-0.6,2-0.8,3-0.5l0,0c1,0.2,1.9,0.9,2.5,1.8  c0.6,0.9,0.8,2,0.5,3l-6.3,27.9c-0.2,0.7,0.3,1.4,1,1.5s1.4-0.3,1.5-1l5.1-22.5c0.5-2.2,2.6-3.5,4.8-3l0,0c2.2,0.5,3.5,2.6,3,4.8  l-2,9.1l0,0l-4.2,18.9c-0.2,0.7,0.3,1.3,1,1.5c0,0,0,0,0,0c0.7,0.1,1.4-0.3,1.5-1L68,36.3l0,0c0.2-1,0.9-1.9,1.8-2.5  c0.9-0.6,2-0.8,3-0.5l0,0c1,0.2,1.9,0.9,2.5,1.8c0.6,0.9,0.8,2,0.5,3L69.7,65.6L69.7,65.6z"/></svg>